HIERARCHY
ROOT Hips
{
 OFFSET 0.000000 0.000000 0.000000
 CHANNELS 6 Xposition Yposition Zposition Yrotation Xrotation Zrotation
 JOINT Chest
 {
  OFFSET 0.000000 9.585900 0.002600
  CHANNELS 3 Yrotation Xrotation Zrotation
  JOINT Chest2
  {
   OFFSET 0.000000 9.601200 -0.005300
   CHANNELS 3 Yrotation Xrotation Zrotation
   JOINT Chest3
   {
    OFFSET 0.000000 9.561800 0.000000
    CHANNELS 3 Yrotation Xrotation Zrotation
    JOINT Chest4
    {
     OFFSET 0.000000 9.552100 0.000000
     CHANNELS 3 Yrotation Xrotation Zrotation
     JOINT Neck
     {
      OFFSET 0.000000 14.453000 0.000000
      CHANNELS 3 Yrotation Xrotation Zrotation
      JOINT Head
      {
       OFFSET 0.000000 8.936500 -0.011300
       CHANNELS 3 Yrotation Xrotation Zrotation
       End Site
       {
        OFFSET 0.000000 17.073600 -0.006000
       }
      }
     }
     JOINT RightCollar
     {
      OFFSET -2.921100 9.558500 0.000000
      CHANNELS 3 Yrotation Xrotation Zrotation
      JOINT RightShoulder
      {
       OFFSET -13.519700 0.000000 0.000000
       CHANNELS 3 Yrotation Xrotation Zrotation
       JOINT RightElbow
       {
        OFFSET 0.000000 -29.696600 0.000000
        CHANNELS 3 Yrotation Xrotation Zrotation
        JOINT RightWrist
        {
         OFFSET 0.000000 -24.004700 0.000000
         CHANNELS 3 Yrotation Xrotation Zrotation
         End Site
         {
          OFFSET 0.000000 -17.728500 0.000000
         }
        }
       }
      }
     }
     JOINT LeftCollar
     {
      OFFSET 2.921100 9.558500 0.000000
      CHANNELS 3 Yrotation Xrotation Zrotation
      JOINT LeftShoulder
      {
       OFFSET 13.519700 0.000000 0.000000
       CHANNELS 3 Yrotation Xrotation Zrotation
       JOINT LeftElbow
       {
        OFFSET 0.000000 -29.696600 0.000000
        CHANNELS 3 Yrotation Xrotation Zrotation
        JOINT LeftWrist
        {
         OFFSET 0.000000 -24.004700 0.000000
         CHANNELS 3 Yrotation Xrotation Zrotation
         End Site
         {
          OFFSET 0.000000 -17.728500 0.000000
         }
        }
       }
      }
     }
    }
   }
  }
 }
 JOINT RightHip
 {
  OFFSET -7.771700 -0.012900 -0.001300
  CHANNELS 3 Yrotation Xrotation Zrotation
  JOINT RightKnee
  {
   OFFSET 0.000000 -40.869800 0.001200
   CHANNELS 3 Yrotation Xrotation Zrotation
   JOINT RightAnkle
   {
    OFFSET 0.000000 -39.717900 0.002100
    CHANNELS 3 Yrotation Xrotation Zrotation
    JOINT RightToe
    {
     OFFSET 0.000000 -4.965400 11.033500
     CHANNELS 3 Yrotation Xrotation Zrotation
     End Site
     {
      OFFSET 0.000000 -1.423100 5.872300
     }
    }
   }
  }
 }
 JOINT LeftHip
 {
  OFFSET 7.771700 -0.012900 -0.001300
  CHANNELS 3 Yrotation Xrotation Zrotation
  JOINT LeftKnee
  {
   OFFSET 0.000000 -40.869800 0.001200
   CHANNELS 3 Yrotation Xrotation Zrotation
   JOINT LeftAnkle
   {
    OFFSET 0.000000 -39.717900 0.002100
    CHANNELS 3 Yrotation Xrotation Zrotation
    JOINT LeftToe
    {
     OFFSET 0.000000 -4.965400 11.033500
     CHANNELS 3 Yrotation Xrotation Zrotation
     End Site
     {
      OFFSET 0.000000 -1.423100 5.872300
     }
    }
   }
  }
 }
}
MOTION
Frames: 7
Frame Time: 0.008333
-100.986513 62.062114 18.749513 175.655334 -47.014075 -1.412318 6.195074 26.892611 0.579301 0.994133 4.665525 0.044900 1.565285 7.357486 0.117378 4.870981 21.774235 0.961826 5.342364 12.024127 3.567400 8.488923 -13.512655 4.609940 4.894759 0.903206 -0.662969 -31.590680 -14.472541 2.731161 -94.467829 -27.607665 137.623838 -16.963768 -23.581473 -26.074749 -7.012420 -1.224908 8.607319 24.025319 -12.101226 0.144997 115.592114 -41.039021 -142.492472 25.691055 -27.049923 27.830100 3.075047 -19.914415 -5.029027 -3.118313 60.244797 -7.060598 0.814586 -5.015009 10.706997 0.353114 -0.757931 0.200738 -5.152285 -16.514604 3.452028 30.752711 75.389435 33.112692 1.527323 -11.647633 -6.082703 0.405025 0.873977 0.182915
-100.989962 62.065097 18.738903 175.701116 -46.957898 -1.444502 6.211410 26.919100 0.568634 0.998098 4.667811 0.042257 1.584082 7.382614 0.104742 4.890489 21.776360 0.948805 5.136033 11.934954 3.619048 8.189714 -13.653018 4.752945 4.807559 0.898851 -0.721217 -31.674469 -14.257457 2.796341 -94.356047 -27.489079 137.582217 -16.979311 -23.661452 -26.497179 -7.000015 -1.253840 8.700371 24.223529 -12.008851 0.101576 115.392154 -40.884507 -142.304127 25.751212 -27.207456 28.379714 3.058473 -19.965590 -5.027517 -3.121668 60.265089 -7.078993 0.812284 -5.025021 10.728474 0.340812 -0.768494 0.190740 -5.192748 -16.569835 3.448274 30.777594 75.403973 33.142291 1.530810 -11.659879 -6.097531 0.418275 0.871568 0.189980
-100.994051 62.064887 18.731195 175.746499 -46.877644 -1.473928 6.222836 26.920866 0.551443 1.002055 4.670486 0.039699 1.590104 7.386557 0.100779 4.905624 21.779264 0.938760 4.937421 11.871089 3.658191 7.886609 -13.793796 4.899915 4.738229 0.926851 -0.787127 -31.753039 -14.059017 2.855229 -94.250388 -27.381964 137.544483 -16.984804 -23.738221 -26.896259 -6.975809 -1.252588 8.769779 24.401019 -11.922752 0.070613 115.204287 -40.741614 -142.121728 25.818333 -27.348277 28.885290 3.040826 -20.040817 -5.032798 -3.136769 60.276491 -7.096981 0.803714 -5.033063 10.728630 0.345352 -0.769510 0.193253 -5.234894 -16.653310 3.443375 30.831672 75.408692 33.194472 1.535518 -11.661568 -6.094829 0.436281 0.869293 0.183295
-100.995540 62.064150 18.724218 175.772426 -46.795604 -1.505020 6.252891 26.918338 0.551142 1.006293 4.673740 0.037124 1.596626 7.391324 0.096812 4.921680 21.783102 0.928780 4.768742 11.799863 3.703096 7.545524 -13.928183 5.054991 4.670730 0.959737 -0.846657 -31.823256 -13.873520 2.911771 -94.155009 -27.287070 137.514929 -16.992498 -23.810393 -27.273049 -6.986987 -1.294525 8.839592 24.588963 -11.790875 0.069793 115.021893 -40.607305 -141.948920 25.877385 -27.474049 29.368448 3.030825 -20.120865 -5.023627 -3.155607 60.284493 -7.111150 0.804681 -5.032037 10.713593 0.346440 -0.775494 0.204356 -5.266109 -16.735222 3.458571 30.824815 75.424025 33.193582 1.540995 -11.673229 -6.098953 0.429345 0.871173 0.181742
-100.998679 62.064077 18.716361 175.804781 -46.722163 -1.530667 6.271106 26.925421 0.539125 1.010906 4.677912 0.034587 1.603810 7.397441 0.093067 4.939005 21.788428 0.919453 4.598954 11.728724 3.749538 7.201261 -14.061772 5.214119 4.603708 0.993084 -0.901157 -31.889852 -13.696557 2.969235 -94.066083 -27.200904 137.491914 -17.001364 -23.878981 -27.628718 -6.949289 -1.257015 8.897989 24.738905 -11.741071 0.047283 114.848069 -40.483518 -141.791042 25.916122 -27.587500 29.857716 3.017353 -20.191157 -5.024998 -3.163916 60.296109 -7.120034 0.803229 -5.038322 10.705767 0.348240 -0.773410 0.199584 -5.300224 -16.807799 3.461990 30.818730 75.434890 33.189897 1.549435 -11.682279 -6.105952 0.419056 0.872638 0.184443
-101.003040 62.063402 18.708870 175.839191 -46.647123 -1.550823 6.281707 26.931151 0.516415 1.015535 4.682338 0.032159 1.590128 7.358446 0.106566 4.970675 21.841183 0.893949 4.428837 11.659590 3.798440 6.854858 -14.190940 5.378573 4.538289 1.028506 -0.950680 -31.953799 -13.526701 3.026562 -93.981832 -27.118355 137.470490 -17.011748 -23.940069 -27.959604 -6.918478 -1.215724 8.949624 24.885069 -11.695104 0.035878 114.683702 -40.374442 -141.640511 25.936092 -27.693743 30.352581 3.006225 -20.262230 -5.029223 -3.182462 60.307449 -7.144448 0.793186 -5.047924 10.710470 0.354267 -0.774078 0.203159 -5.333073 -16.881682 3.458076 30.845533 75.435428 33.214008 1.552259 -11.692419 -6.103042 0.416408 0.877564 0.183075
-101.006124 62.062889 18.701318 175.871038 -46.576377 -1.576830 6.296800 26.940078 0.502107 1.019783 4.686231 0.029911 1.577874 7.320065 0.118600 4.999558 21.891577 0.870832 4.257079 11.594108 3.849816 6.503706 -14.312706 5.549029 4.476380 1.069213 -0.996729 -32.015156 -13.363150 3.084338 -93.901193 -27.038085 137.448020 -17.026608 -23.996205 -28.261378 -6.914756 -1.195100 8.992309 25.037773 -11.627564 0.046920 114.527991 -40.283156 -141.488378 25.945443 -27.796231 30.829676 2.991362 -20.328587 -5.026971 -3.186107 60.316906 -7.154985 0.788145 -5.057765 10.716301 0.352154 -0.774889 0.203250 -5.362519 -16.951302 3.463770 30.863509 75.442116 33.233328 1.552516 -11.707315 -6.100822 0.419184 0.883453 0.180603
